<?xml version="1.0" encoding="UTF-8" standalone="no"?>
<!-- Created with Inkscape (http://www.inkscape.org/) -->

<svg
   xmlns:dc="http://purl.org/dc/elements/1.1/"
   xmlns:cc="http://creativecommons.org/ns#"
   xmlns:rdf="http://www.w3.org/1999/02/22-rdf-syntax-ns#"
   xmlns:svg="http://www.w3.org/2000/svg"
   xmlns="http://www.w3.org/2000/svg"
   xmlns:xlink="http://www.w3.org/1999/xlink"
   xmlns:sodipodi="http://sodipodi.sourceforge.net/DTD/sodipodi-0.dtd"
   xmlns:inkscape="http://www.inkscape.org/namespaces/inkscape"
   width="800"
   height="500"
   id="svg2"
   version="1.1"
   inkscape:version="0.48.2 r9819"
   sodipodi:docname="Setup.svg">
  <defs
     id="defs4">
    <marker
       inkscape:stockid="Arrow1Lend"
       orient="auto"
       refY="0"
       refX="0"
       id="Arrow1Lend"
       style="overflow:visible">
      <path
         id="path3821"
         d="M 0,0 5,-5 -12.5,0 5,5 0,0 z"
         style="fill-rule:evenodd;stroke:#000000;stroke-width:1pt;marker-start:none"
         transform="matrix(-0.8,0,0,-0.8,-10,0)"
         inkscape:connector-curvature="0" />
    </marker>
    <marker
       inkscape:stockid="Arrow1Lstart"
       orient="auto"
       refY="0"
       refX="0"
       id="Arrow1Lstart"
       style="overflow:visible">
      <path
         id="path3818"
         d="M 0,0 5,-5 -12.5,0 5,5 0,0 z"
         style="fill-rule:evenodd;stroke:#000000;stroke-width:1pt;marker-start:none"
         transform="matrix(0.8,0,0,0.8,10,0)"
         inkscape:connector-curvature="0" />
    </marker>
  </defs>
  <sodipodi:namedview
     id="base"
     pagecolor="#ffffff"
     bordercolor="#666666"
     borderopacity="1.0"
     inkscape:pageopacity="0.0"
     inkscape:pageshadow="2"
     inkscape:zoom="1"
     inkscape:cx="382.01087"
     inkscape:cy="209.88919"
     inkscape:document-units="px"
     inkscape:current-layer="layer1"
     showgrid="true"
     inkscape:window-width="1440"
     inkscape:window-height="848"
     inkscape:window-x="0"
     inkscape:window-y="23"
     inkscape:window-maximized="1">
    <inkscape:grid
       type="xygrid"
       id="grid2985"
       empspacing="5"
       visible="true"
       enabled="true"
       snapvisiblegridlinesonly="true"
       spacingx="10px"
       spacingy="10px" />
  </sodipodi:namedview>
  <metadata
     id="metadata7">
    <rdf:RDF>
      <cc:Work
         rdf:about="">
        <dc:format>image/svg+xml</dc:format>
        <dc:type
           rdf:resource="http://purl.org/dc/dcmitype/StillImage" />
        <dc:title></dc:title>
      </cc:Work>
    </rdf:RDF>
  </metadata>
  <g
     inkscape:label="Layer 1"
     inkscape:groupmode="layer"
     id="layer1"
     transform="translate(0,-552.36218)">
    <rect
       style="fill:#8fa7ff;fill-opacity:1;stroke:none"
       id="rect4567"
       width="300"
       height="140"
       x="250"
       y="602.36218" />
    <use
       x="0"
       y="0"
       xlink:href="#use4597"
       id="use4624"
       transform="translate(610,0)"
       width="1000"
       height="500" />
    <use
       x="0"
       y="0"
       xlink:href="#rect2989"
       id="use4597"
       transform="matrix(1,0,0,1.1363636,-200,-289.41302)"
       width="1000"
       height="500" />
    <path
       style="fill:none;stroke:#000000;stroke-width:1px;stroke-linecap:butt;stroke-linejoin:miter;stroke-opacity:1"
       d="m 20,1002.3622 200,0"
       id="path2987"
       inkscape:connector-curvature="0" />
    <rect
       style="fill:#9292ff;fill-opacity:1;fill-rule:evenodd;stroke:#000000;stroke-width:1px;stroke-linecap:butt;stroke-linejoin:miter;stroke-opacity:1"
       id="rect2989"
       width="150"
       height="220"
       x="220"
       y="802.36218" />
    <path
       sodipodi:type="arc"
       style="fill:none;stroke:#c80000;stroke-width:1.5;stroke-linecap:butt;stroke-linejoin:miter;stroke-miterlimit:4;stroke-opacity:1;stroke-dasharray:none"
       id="path2991"
       sodipodi:cx="160"
       sodipodi:cy="355"
       sodipodi:rx="90"
       sodipodi:ry="95"
       d="m 250,355 c 0,52.46705 -40.29437,95 -90,95 -49.70563,0 -90,-42.53295 -90,-95 0,0 0,0 0,0"
       transform="matrix(0,-1,1,0,-135,1072.3622)"
       sodipodi:start="0"
       sodipodi:end="3.1415927"
       sodipodi:open="true" />
    <path
       sodipodi:end="3.1415927"
       sodipodi:start="0"
       transform="matrix(0,-0.88888923,0.88888923,0,-95.555678,1064.5845)"
       d="m 250,355 c 0,52.46705 -40.29437,95 -90,95 -49.70563,0 -90,-42.53295 -90,-95"
       sodipodi:ry="95"
       sodipodi:rx="90"
       sodipodi:cy="355"
       sodipodi:cx="160"
       id="path3004"
       style="fill:none;stroke:#007f00;stroke-width:1.6874994;stroke-linecap:butt;stroke-linejoin:miter;stroke-miterlimit:4;stroke-opacity:1;stroke-dasharray:none"
       sodipodi:type="arc"
       sodipodi:open="true" />
    <path
       sodipodi:type="arc"
       style="fill:none;stroke:#0000c8;stroke-width:1.92856812;stroke-linecap:butt;stroke-linejoin:miter;stroke-miterlimit:4;stroke-opacity:1;stroke-dasharray:none"
       id="path3006"
       sodipodi:cx="160"
       sodipodi:cy="355"
       sodipodi:rx="90"
       sodipodi:ry="95"
       d="m 250,355 c 0,52.46705 -40.29437,95 -90,95 -49.70563,0 -90,-42.53295 -90,-95 0,0 0,0 0,0"
       transform="matrix(0,-0.77777911,0.77777911,0,-56.111583,1056.8068)"
       sodipodi:start="0"
       sodipodi:end="3.1415927"
       sodipodi:open="true" />
    <use
       x="0"
       y="0"
       xlink:href="#path3006"
       id="use4458"
       transform="matrix(-1,0,0,-1,390,1724.7243)"
       width="1000"
       height="500" />
    <path
       style="fill:none;stroke:#000000;stroke-width:0.70710677px;stroke-linecap:butt;stroke-linejoin:miter;stroke-opacity:1"
       d="m 20,1012.3622 c 5,-100.00002 10,0 10,0"
       id="path3788"
       inkscape:connector-curvature="0"
       sodipodi:nodetypes="cc" />
    <path
       sodipodi:nodetypes="cc"
       inkscape:connector-curvature="0"
       id="path3790"
       d="m 90,1012.3622 c 5,-100.00002 10,0 10,0"
       style="fill:#c80000;fill-opacity:0.78448277;stroke:#000000;stroke-width:0.70710677px;stroke-linecap:butt;stroke-linejoin:miter;stroke-opacity:1" />
    <path
       style="fill:#0000c8;fill-opacity:0.78448277;stroke:#000000;stroke-width:0.70710677px;stroke-linecap:butt;stroke-linejoin:miter;stroke-opacity:1"
       d="m 80,1012.3622 c 5,-100.00002 10,0 10,0"
       id="path3796"
       inkscape:connector-curvature="0"
       sodipodi:nodetypes="cc" />
    <path
       sodipodi:nodetypes="cc"
       inkscape:connector-curvature="0"
       id="path3798"
       d="m 85,1012.3622 c 5,-100.00004 10,0 10,0"
       style="fill:#007f00;fill-opacity:0.78448277;stroke:#000000;stroke-width:0.70710677px;stroke-linecap:butt;stroke-linejoin:miter;stroke-opacity:1" />
    <use
       x="0"
       y="0"
       xlink:href="#path3004"
       id="use4460"
       transform="matrix(-1,0,0,-1,390,1684.7244)"
       width="1000"
       height="500" />
    <use
       x="0"
       y="0"
       xlink:href="#path2991"
       id="use4462"
       transform="matrix(-1,0,0,-1,390,1644.7244)"
       width="1000"
       height="500" />
    <use
       x="0"
       y="0"
       xlink:href="#path3790"
       id="use4464"
       transform="translate(85,0)"
       width="1000"
       height="500" />
    <use
       x="0"
       y="0"
       xlink:href="#path3796"
       id="use4466"
       transform="translate(75,0)"
       width="1000"
       height="500" />
    <use
       x="0"
       y="0"
       xlink:href="#path3798"
       id="use4468"
       transform="translate(80,0)"
       width="1000"
       height="500" />
    <text
       xml:space="preserve"
       style="font-size:32px;font-style:normal;font-weight:normal;line-height:125%;letter-spacing:0px;word-spacing:0px;fill:#000000;fill-opacity:1;stroke:none;font-family:Sans"
       x="346"
       y="830.36218"
       id="text4470"
       sodipodi:linespacing="125%"><tspan
         sodipodi:role="line"
         id="tspan4472"
         x="346"
         y="830.36218">B</tspan></text>
    <use
       x="0"
       y="0"
       xlink:href="#text4470"
       id="use4474"
       transform="translate(-322,-178)"
       width="1000"
       height="500" />
    <path
       style="fill:none;stroke:#c80000;stroke-width:1.5;stroke-linecap:butt;stroke-linejoin:miter;stroke-miterlimit:4;stroke-opacity:1;stroke-dasharray:none"
       d="m 170,822.36218 50,0"
       id="path4476"
       inkscape:connector-curvature="0" />
    <path
       style="fill:none;stroke:#007f00;stroke-width:1.5;stroke-linecap:butt;stroke-linejoin:miter;stroke-miterlimit:4;stroke-opacity:1;stroke-dasharray:none"
       d="m 220,842.36218 -50,0"
       id="path4478"
       inkscape:connector-curvature="0" />
    <path
       style="fill:none;stroke:#0000c8;stroke-width:1.5;stroke-linecap:butt;stroke-linejoin:miter;stroke-miterlimit:4;stroke-opacity:1;stroke-dasharray:none"
       d="m 170,862.36218 50,0"
       id="path4480"
       inkscape:connector-curvature="0" />
    <use
       x="0"
       y="0"
       xlink:href="#path2987"
       id="use4482"
       transform="matrix(-1,0,0,1,800,0)"
       width="1000"
       height="500" />
    <use
       x="0"
       y="0"
       xlink:href="#rect2989"
       id="use4484"
       transform="matrix(-1,0,0,1,800,0)"
       width="1000"
       height="500" />
    <use
       x="0"
       y="0"
       xlink:href="#path2991"
       id="use4486"
       transform="matrix(-1,0,0,1,800,0)"
       width="1000"
       height="500" />
    <use
       x="0"
       y="0"
       xlink:href="#path3004"
       id="use4488"
       transform="matrix(-1,0,0,1,800,0)"
       width="1000"
       height="500" />
    <use
       x="0"
       y="0"
       xlink:href="#path3006"
       id="use4490"
       transform="matrix(-1,0,0,1,800,0)"
       width="1000"
       height="500" />
    <use
       x="0"
       y="0"
       xlink:href="#use4458"
       id="use4494"
       transform="matrix(-1,0,0,1,800,0)"
       width="1000"
       height="500" />
    <use
       x="0"
       y="0"
       xlink:href="#path3788"
       id="use4496"
       transform="matrix(-1,0,0,1,800,0)"
       width="1000"
       height="500" />
    <use
       x="0"
       y="0"
       xlink:href="#path3790"
       id="use4498"
       transform="matrix(-1,0,0,1,800,0)"
       width="1000"
       height="500" />
    <use
       x="0"
       y="0"
       xlink:href="#path3796"
       id="use4500"
       transform="matrix(-1,0,0,1,800,0)"
       width="1000"
       height="500" />
    <use
       x="0"
       y="0"
       xlink:href="#path3798"
       id="use4502"
       transform="matrix(-1,0,0,1,800,0)"
       width="1000"
       height="500" />
    <use
       x="0"
       y="0"
       xlink:href="#use4460"
       id="use4504"
       transform="matrix(-1,0,0,1,800,0)"
       width="1000"
       height="500" />
    <use
       x="0"
       y="0"
       xlink:href="#use4462"
       id="use4506"
       transform="matrix(-1,0,0,1,800,0)"
       width="1000"
       height="500" />
    <use
       x="0"
       y="0"
       xlink:href="#use4464"
       id="use4508"
       transform="matrix(-1,0,0,1,800,0)"
       width="1000"
       height="500" />
    <use
       x="0"
       y="0"
       xlink:href="#use4466"
       id="use4510"
       transform="matrix(-1,0,0,1,800,0)"
       width="1000"
       height="500" />
    <use
       x="0"
       y="0"
       xlink:href="#use4468"
       id="use4512"
       transform="matrix(-1,0,0,1,800,0)"
       width="1000"
       height="500" />
    <use
       x="0"
       y="0"
       xlink:href="#text4470"
       id="use4514"
       transform="translate(85.17188,0)"
       width="1000"
       height="500" />
    <use
       x="0"
       y="0"
       xlink:href="#use4474"
       id="use4516"
       transform="translate(729.17188,0)"
       width="1000"
       height="500" />
    <use
       x="0"
       y="0"
       xlink:href="#path4476"
       id="use4518"
       transform="matrix(-1,0,0,1,800,0)"
       width="1000"
       height="500" />
    <use
       x="0"
       y="0"
       xlink:href="#path4478"
       id="use4520"
       transform="matrix(-1,0,0,1,800,0)"
       width="1000"
       height="500" />
    <use
       x="0"
       y="0"
       xlink:href="#path4480"
       id="use4522"
       transform="matrix(-1,0,0,1,800,0)"
       width="1000"
       height="500" />
    <path
       inkscape:connector-curvature="0"
       id="use4524"
       d="m 170,642.36218 460,0"
       style="fill:none;stroke:#c80000;stroke-width:1.5;stroke-linecap:butt;stroke-linejoin:miter;stroke-miterlimit:4;stroke-opacity:1;stroke-dasharray:none" />
    <path
       style="fill:none;stroke:#007f00;stroke-width:1.5;stroke-linecap:butt;stroke-linejoin:miter;stroke-miterlimit:4;stroke-opacity:1;stroke-dasharray:none"
       d="m 170,682.36218 460,0"
       id="path4528"
       inkscape:connector-curvature="0" />
    <path
       inkscape:connector-curvature="0"
       id="path4530"
       d="m 170,722.36218 460,0"
       style="fill:none;stroke:#0000c8;stroke-width:1.5;stroke-linecap:butt;stroke-linejoin:miter;stroke-miterlimit:4;stroke-opacity:1;stroke-dasharray:none" />
    <use
       x="0"
       y="0"
       xlink:href="#path3790"
       id="use4532"
       transform="translate(130,-360.00002)"
       width="1000"
       height="500" />
    <use
       x="0"
       y="0"
       xlink:href="#path3796"
       id="use4534"
       transform="translate(110,-280.00002)"
       width="1000"
       height="500" />
    <use
       x="0"
       y="0"
       xlink:href="#path3798"
       id="use4536"
       transform="translate(120,-320.00002)"
       width="1000"
       height="500" />
    <use
       x="0"
       y="0"
       xlink:href="#use4532"
       id="use4538"
       width="1000"
       height="500"
       transform="matrix(-1,0,0,1,800,0)" />
    <use
       x="0"
       y="0"
       xlink:href="#use4534"
       id="use4540"
       width="1000"
       height="500"
       transform="matrix(-1,0,0,1,800,0)" />
    <use
       x="0"
       y="0"
       xlink:href="#use4536"
       id="use4542"
       width="1000"
       height="500"
       transform="matrix(-1,0,0,1,800,0)" />
    <path
       style="fill:none;stroke:#000064;stroke-width:2;stroke-linecap:butt;stroke-linejoin:miter;stroke-miterlimit:4;stroke-opacity:1;stroke-dasharray:none"
       d="m 550,752.36218 -300,0"
       id="path4563"
       inkscape:connector-curvature="0" />
    <use
       x="0"
       y="0"
       xlink:href="#path4563"
       id="use4565"
       transform="translate(0,-160)"
       width="1000"
       height="500" />
    <text
       sodipodi:linespacing="125%"
       id="use4626"
       y="632.36218"
       x="252"
       style="font-size:32px;font-style:normal;font-weight:normal;line-height:125%;letter-spacing:0px;word-spacing:0px;fill:#000000;fill-opacity:1;stroke:none;font-family:Sans"
       xml:space="preserve"><tspan
         y="632.36218"
         x="252"
         id="tspan4634"
         sodipodi:role="line">WF</tspan></text>
    <g
       id="g4654"
       style="stroke:#000064;stroke-opacity:1"
       transform="translate(-30,10)">
      <path
         transform="translate(0,552.36218)"
         inkscape:connector-curvature="0"
         id="path4636"
         d="m 430,190 0,30"
         style="fill:none;stroke:#000064;stroke-width:2;stroke-linecap:butt;stroke-linejoin:miter;stroke-miterlimit:4;stroke-opacity:1;stroke-dasharray:none" />
      <path
         inkscape:connector-curvature="0"
         id="path4638"
         d="m 420,762.36218 20,0"
         style="fill:none;stroke:#000064;stroke-width:2;stroke-linecap:butt;stroke-linejoin:miter;stroke-miterlimit:4;stroke-opacity:1;stroke-dasharray:none" />
      <path
         inkscape:connector-curvature="0"
         id="path4640"
         d="m 435,767.36218 -10,0"
         style="fill:none;stroke:#000064;stroke-width:2;stroke-linecap:butt;stroke-linejoin:miter;stroke-miterlimit:4;stroke-opacity:1;stroke-dasharray:none" />
    </g>
    <path
       style="fill:none;stroke:#000064;stroke-width:2;stroke-linecap:butt;stroke-linejoin:miter;stroke-miterlimit:4;stroke-opacity:1;stroke-dasharray:none"
       d="m 420,592.36218 0,-20 20,0 0,0"
       id="path4667"
       inkscape:connector-curvature="0" />
    <text
       xml:space="preserve"
       style="font-size:40px;font-style:normal;font-weight:normal;line-height:125%;letter-spacing:0px;word-spacing:0px;fill:#000000;fill-opacity:1;stroke:none;font-family:Sans"
       x="442"
       y="578.36218"
       id="text4669"
       sodipodi:linespacing="125%"><tspan
         sodipodi:role="line"
         id="tspan4671"
         x="442"
         y="578.36218"
         style="font-size:20.00018311px">V<tspan
   style="font-size:65.00091553%;baseline-shift:sub"
   id="tspan4675">0</tspan></tspan></text>
  </g>
</svg>
