<?xml version="1.0" encoding="UTF-8" standalone="no"?>
<!-- Created with Inkscape (http://www.inkscape.org/) -->

<svg
   xmlns:dc="http://purl.org/dc/elements/1.1/"
   xmlns:cc="http://creativecommons.org/ns#"
   xmlns:rdf="http://www.w3.org/1999/02/22-rdf-syntax-ns#"
   xmlns:svg="http://www.w3.org/2000/svg"
   xmlns="http://www.w3.org/2000/svg"
   xmlns:xlink="http://www.w3.org/1999/xlink"
   xmlns:sodipodi="http://sodipodi.sourceforge.net/DTD/sodipodi-0.dtd"
   xmlns:inkscape="http://www.inkscape.org/namespaces/inkscape"
   width="502.13202"
   height="310.62961"
   id="svg2"
   version="1.1"
   inkscape:version="0.48.2 r9819"
   sodipodi:docname="Setup.small.svg">
  <defs
     id="defs4">
    <marker
       inkscape:stockid="Arrow1Lend"
       orient="auto"
       refY="0"
       refX="0"
       id="Arrow1Lend"
       style="overflow:visible">
      <path
         id="path3821"
         d="M 0,0 5,-5 -12.5,0 5,5 0,0 z"
         style="fill-rule:evenodd;stroke:#000000;stroke-width:1pt;marker-start:none"
         transform="matrix(-0.8,0,0,-0.8,-10,0)"
         inkscape:connector-curvature="0" />
    </marker>
    <marker
       inkscape:stockid="Arrow1Lstart"
       orient="auto"
       refY="0"
       refX="0"
       id="Arrow1Lstart"
       style="overflow:visible">
      <path
         id="path3818"
         d="M 0,0 5,-5 -12.5,0 5,5 0,0 z"
         style="fill-rule:evenodd;stroke:#000000;stroke-width:1pt;marker-start:none"
         transform="matrix(0.8,0,0,0.8,10,0)"
         inkscape:connector-curvature="0" />
    </marker>
  </defs>
  <sodipodi:namedview
     id="base"
     pagecolor="#ffffff"
     bordercolor="#666666"
     borderopacity="1.0"
     inkscape:pageopacity="0.0"
     inkscape:pageshadow="2"
     inkscape:zoom="1.3194917"
     inkscape:cx="52.278132"
     inkscape:cy="118.6579"
     inkscape:document-units="px"
     inkscape:current-layer="layer1"
     showgrid="true"
     inkscape:window-width="1440"
     inkscape:window-height="848"
     inkscape:window-x="0"
     inkscape:window-y="23"
     inkscape:window-maximized="1"
     fit-margin-top="10"
     fit-margin-left="10"
     fit-margin-right="10"
     fit-margin-bottom="10">
    <inkscape:grid
       type="xygrid"
       id="grid2985"
       empspacing="5"
       visible="true"
       enabled="true"
       snapvisiblegridlinesonly="true"
       spacingx="10px"
       spacingy="10px" />
  </sodipodi:namedview>
  <metadata
     id="metadata7">
    <rdf:RDF>
      <cc:Work
         rdf:about="">
        <dc:format>image/svg+xml</dc:format>
        <dc:type
           rdf:resource="http://purl.org/dc/dcmitype/StillImage" />
        <dc:title></dc:title>
      </cc:Work>
    </rdf:RDF>
  </metadata>
  <g
     inkscape:label="Layer 1"
     inkscape:groupmode="layer"
     id="layer1"
     transform="translate(1.0659883,-555.36408)">
    <rect
       style="fill:#b8c7ff;fill-opacity:1;stroke:#4b71ff;stroke-width:2;stroke-miterlimit:4;stroke-opacity:1;stroke-dasharray:8, 8;stroke-dashoffset:0"
       id="rect4567"
       width="189.47368"
       height="88.421051"
       x="155.26317"
       y="589.73053" />
    <use
       x="0"
       y="0"
       xlink:href="#use4597"
       id="use4624"
       transform="translate(385.26316,9.0000014e-7)"
       width="1000"
       height="500" />
    <use
       x="0"
       y="0"
       xlink:href="#rect2989"
       id="use4597"
       transform="matrix(1,0,0,1.1363636,-126.31579,-211.32689)"
       width="1000"
       height="500" />
    <path
       style="fill:none;stroke:#000000;stroke-width:1.5;stroke-linecap:butt;stroke-linejoin:miter;stroke-opacity:1;stroke-miterlimit:4;stroke-dasharray:none"
       d="m 10,842.36218 126.31579,0"
       id="path2987"
       inkscape:connector-curvature="0" />
    <rect
       style="fill:#bcbcff;fill-opacity:1;fill-rule:evenodd;stroke:#5b5bff;stroke-width:2;stroke-linecap:butt;stroke-linejoin:bevel;stroke-miterlimit:4;stroke-opacity:1;stroke-dasharray:8, 8;stroke-dashoffset:0"
       id="rect2989"
       width="94.736839"
       height="138.94737"
       x="136.31581"
       y="716.04633" />
    <path
       sodipodi:type="arc"
       style="fill:none;stroke:#c80000;stroke-width:2.375;stroke-linecap:butt;stroke-linejoin:miter;stroke-miterlimit:4;stroke-opacity:1;stroke-dasharray:none"
       id="path2991"
       sodipodi:cx="160"
       sodipodi:cy="355"
       sodipodi:rx="90"
       sodipodi:ry="95"
       d="M 250,355 A 90,95 0 1 1 70,355"
       transform="matrix(0,-0.63157895,0.63157895,0,-87.894737,886.57268)"
       sodipodi:start="0"
       sodipodi:end="3.1415927"
       sodipodi:open="true" />
    <path
       sodipodi:end="3.1415927"
       sodipodi:start="0"
       transform="matrix(0,-0.56140372,0.56140372,0,-62.982533,881.66048)"
       d="M 250,355 A 90,95 0 1 1 70,355"
       sodipodi:ry="95"
       sodipodi:rx="90"
       sodipodi:cy="355"
       sodipodi:cx="160"
       id="path3004"
       style="fill:none;stroke:#007f00;stroke-width:2.67187405;stroke-linecap:butt;stroke-linejoin:miter;stroke-miterlimit:4;stroke-opacity:1;stroke-dasharray:none"
       sodipodi:type="arc"
       sodipodi:open="true" />
    <path
       sodipodi:type="arc"
       style="fill:none;stroke:#0000c8;stroke-width:3.05356622;stroke-linecap:butt;stroke-linejoin:miter;stroke-miterlimit:4;stroke-opacity:1;stroke-dasharray:none"
       id="path3006"
       sodipodi:cx="160"
       sodipodi:cy="355"
       sodipodi:rx="90"
       sodipodi:ry="95"
       d="M 250,355 A 90,95 0 1 1 70,355"
       transform="matrix(0,-0.49122891,0.49122891,0,-38.070473,876.74828)"
       sodipodi:start="0"
       sodipodi:end="3.1415927"
       sodipodi:open="true" />
    <use
       x="0"
       y="0"
       xlink:href="#path3006"
       id="use4458"
       transform="matrix(-1,0,0,-1,241.05263,1507.8821)"
       width="1000"
       height="500" />
    <path
       style="fill:none;stroke:#000000;stroke-width:1.5;stroke-linecap:butt;stroke-linejoin:miter;stroke-opacity:1;stroke-miterlimit:4;stroke-dasharray:none"
       d="m 10,848.67798 c 3.157895,-63.1579 6.31579,0 6.31579,0"
       id="path3788"
       inkscape:connector-curvature="0"
       sodipodi:nodetypes="cc" />
    <path
       sodipodi:nodetypes="cc"
       inkscape:connector-curvature="0"
       id="path3790"
       d="m 54.210527,848.67798 c 3.157894,-63.1579 6.315789,0 6.315789,0"
       style="fill:#c80000;fill-opacity:1;stroke:#000000;stroke-width:1.50000000000000000;stroke-linecap:butt;stroke-linejoin:miter;stroke-opacity:1;stroke-miterlimit:4;stroke-dasharray:none" />
    <path
       style="fill:#0000c8;fill-opacity:1;stroke:#000000;stroke-width:1.50000000000000000;stroke-linecap:butt;stroke-linejoin:miter;stroke-opacity:1;stroke-miterlimit:4;stroke-dasharray:none"
       d="m 47.894737,848.67798 c 3.157895,-63.1579 6.31579,0 6.31579,0"
       id="path3796"
       inkscape:connector-curvature="0"
       sodipodi:nodetypes="cc" />
    <path
       sodipodi:nodetypes="cc"
       inkscape:connector-curvature="0"
       id="path3798"
       d="m 51.052632,848.67798 c 3.157895,-63.15791 6.315789,0 6.315789,0"
       style="fill:#007f00;fill-opacity:1;stroke:#000000;stroke-width:1.50000000000000000;stroke-linecap:butt;stroke-linejoin:miter;stroke-opacity:1;stroke-miterlimit:4;stroke-dasharray:none" />
    <use
       x="0"
       y="0"
       xlink:href="#path3004"
       id="use4460"
       transform="matrix(-1,0,0,-1,241.05263,1482.619)"
       width="1000"
       height="500" />
    <use
       x="0"
       y="0"
       xlink:href="#path2991"
       id="use4462"
       transform="matrix(-1,0,0,-1,241.05263,1457.3558)"
       width="1000"
       height="500" />
    <use
       x="0"
       y="0"
       xlink:href="#path3790"
       id="use4464"
       transform="translate(53.684211,-9.0000014e-7)"
       width="1000"
       height="500" />
    <use
       x="0"
       y="0"
       xlink:href="#path3796"
       id="use4466"
       transform="translate(47.368421,-9.0000014e-7)"
       width="1000"
       height="500" />
    <use
       x="0"
       y="0"
       xlink:href="#path3798"
       id="use4468"
       transform="translate(50.526316,-9.0000014e-7)"
       width="1000"
       height="500" />
    <text
       xml:space="preserve"
       style="font-size:20.21052551px;font-style:normal;font-weight:normal;line-height:125%;letter-spacing:0px;word-spacing:0px;fill:#000000;fill-opacity:1;stroke:none;font-family:Sans"
       x="213.89474"
       y="735.73053"
       id="text4470"
       sodipodi:linespacing="125%"><tspan
         sodipodi:role="line"
         id="tspan4472"
         x="213.89474"
         y="735.73053">B</tspan></text>
    <use
       x="0"
       y="0"
       xlink:href="#text4470"
       id="use4474"
       transform="translate(-199.36842,-112.42105)"
       width="1000"
       height="500" />
    <path
       style="fill:none;stroke:#c80000;stroke-width:1.5;stroke-linecap:butt;stroke-linejoin:miter;stroke-miterlimit:4;stroke-opacity:1;stroke-dasharray:none"
       d="m 104.73684,728.67797 31.57895,0"
       id="path4476"
       inkscape:connector-curvature="0" />
    <path
       style="fill:none;stroke:#007f00;stroke-width:1.5;stroke-linecap:butt;stroke-linejoin:miter;stroke-miterlimit:4;stroke-opacity:1;stroke-dasharray:none"
       d="m 136.31579,741.30955 -31.57895,0"
       id="path4478"
       inkscape:connector-curvature="0" />
    <path
       style="fill:none;stroke:#0000c8;stroke-width:1.5;stroke-linecap:butt;stroke-linejoin:miter;stroke-miterlimit:4;stroke-opacity:1;stroke-dasharray:none"
       d="m 104.73684,753.94113 31.57895,0"
       id="path4480"
       inkscape:connector-curvature="0" />
    <use
       x="0"
       y="0"
       xlink:href="#path2987"
       id="use4482"
       transform="matrix(-1,0,0,1,500,-9.0000014e-7)"
       width="1000"
       height="500" />
    <use
       x="0"
       y="0"
       xlink:href="#rect2989"
       id="use4484"
       transform="matrix(-1,0,0,1,500,-9.0000014e-7)"
       width="1000"
       height="500" />
    <use
       x="0"
       y="0"
       xlink:href="#path2991"
       id="use4486"
       transform="matrix(-1,0,0,1,500,-9.0000002e-7)"
       width="1000"
       height="500" />
    <use
       x="0"
       y="0"
       xlink:href="#path3004"
       id="use4488"
       transform="matrix(-1,0,0,1,500,-9.0000014e-7)"
       width="1000"
       height="500" />
    <use
       x="0"
       y="0"
       xlink:href="#path3006"
       id="use4490"
       transform="matrix(-1,0,0,1,500,-9.0000002e-7)"
       width="1000"
       height="500" />
    <use
       x="0"
       y="0"
       xlink:href="#use4458"
       id="use4494"
       transform="matrix(-1,0,0,1,500,-9.0000014e-7)"
       width="1000"
       height="500" />
    <use
       x="0"
       y="0"
       xlink:href="#path3788"
       id="use4496"
       transform="matrix(-1,0,0,1,500,-9.0000014e-7)"
       width="1000"
       height="500" />
    <use
       x="0"
       y="0"
       xlink:href="#path3790"
       id="use4498"
       transform="matrix(-1,0,0,1,500,-9.0000014e-7)"
       width="1000"
       height="500" />
    <use
       x="0"
       y="0"
       xlink:href="#path3796"
       id="use4500"
       transform="matrix(-1,0,0,1,500,-9.0000014e-7)"
       width="1000"
       height="500" />
    <use
       x="0"
       y="0"
       xlink:href="#path3798"
       id="use4502"
       transform="matrix(-1,0,0,1,500,-9.0000014e-7)"
       width="1000"
       height="500" />
    <use
       x="0"
       y="0"
       xlink:href="#use4460"
       id="use4504"
       transform="matrix(-1,0,0,1,500,-9.0000014e-7)"
       width="1000"
       height="500" />
    <use
       x="0"
       y="0"
       xlink:href="#use4462"
       id="use4506"
       transform="matrix(-1,0,0,1,500,-9.0000014e-7)"
       width="1000"
       height="500" />
    <use
       x="0"
       y="0"
       xlink:href="#use4464"
       id="use4508"
       transform="matrix(-1,0,0,1,500,-9.0000014e-7)"
       width="1000"
       height="500" />
    <use
       x="0"
       y="0"
       xlink:href="#use4466"
       id="use4510"
       transform="matrix(-1,0,0,1,500,-9.0000014e-7)"
       width="1000"
       height="500" />
    <use
       x="0"
       y="0"
       xlink:href="#use4468"
       id="use4512"
       transform="matrix(-1,0,0,1,500,-9.0000014e-7)"
       width="1000"
       height="500" />
    <use
       x="0"
       y="0"
       xlink:href="#text4470"
       id="use4514"
       transform="translate(57.792766,-9.0000014e-7)"
       width="1000"
       height="500" />
    <use
       x="0"
       y="0"
       xlink:href="#use4474"
       id="use4516"
       transform="translate(456.52961,-9.0000014e-7)"
       width="1000"
       height="500" />
    <use
       x="0"
       y="0"
       xlink:href="#path4476"
       id="use4518"
       transform="matrix(-1,0,0,1,500,-9.0000014e-7)"
       width="1000"
       height="500" />
    <use
       x="0"
       y="0"
       xlink:href="#path4478"
       id="use4520"
       transform="matrix(-1,0,0,1,500,-9.0000014e-7)"
       width="1000"
       height="500" />
    <use
       x="0"
       y="0"
       xlink:href="#path4480"
       id="use4522"
       transform="matrix(-1,0,0,1,500,-9.0000014e-7)"
       width="1000"
       height="500" />
    <path
       inkscape:connector-curvature="0"
       id="use4524"
       d="m 104.73684,614.99376 290.52632,0"
       style="fill:none;stroke:#c80000;stroke-width:1.5;stroke-linecap:butt;stroke-linejoin:miter;stroke-miterlimit:4;stroke-opacity:1;stroke-dasharray:none" />
    <path
       style="fill:none;stroke:#007f00;stroke-width:1.5;stroke-linecap:butt;stroke-linejoin:miter;stroke-miterlimit:4;stroke-opacity:1;stroke-dasharray:none"
       d="m 104.73684,640.25692 290.52632,0"
       id="path4528"
       inkscape:connector-curvature="0" />
    <path
       inkscape:connector-curvature="0"
       id="path4530"
       d="m 104.73684,665.52008 290.52632,0"
       style="fill:none;stroke:#0000c8;stroke-width:1.5;stroke-linecap:butt;stroke-linejoin:miter;stroke-miterlimit:4;stroke-opacity:1;stroke-dasharray:none" />
    <use
       x="0"
       y="0"
       xlink:href="#path3790"
       id="use4532"
       transform="translate(82.105263,-227.36843)"
       width="1000"
       height="500" />
    <use
       x="0"
       y="0"
       xlink:href="#path3796"
       id="use4534"
       transform="translate(69.473684,-176.84212)"
       width="1000"
       height="500" />
    <use
       x="0"
       y="0"
       xlink:href="#path3798"
       id="use4536"
       transform="translate(75.789474,-202.10528)"
       width="1000"
       height="500" />
    <use
       x="0"
       y="0"
       xlink:href="#use4532"
       id="use4538"
       width="1000"
       height="500"
       transform="matrix(-1,0,0,1,500,-9.0000014e-7)" />
    <use
       x="0"
       y="0"
       xlink:href="#use4534"
       id="use4540"
       width="1000"
       height="500"
       transform="matrix(-1,0,0,1,500,-9.0000014e-7)" />
    <use
       x="0"
       y="0"
       xlink:href="#use4536"
       id="use4542"
       width="1000"
       height="500"
       transform="matrix(-1,0,0,1,500,-9.0000014e-7)" />
    <path
       style="fill:none;stroke:#000064;stroke-width:2;stroke-linecap:butt;stroke-linejoin:miter;stroke-miterlimit:4;stroke-opacity:1;stroke-dasharray:none"
       d="m 344.73684,684.46745 -189.47368,0"
       id="path4563"
       inkscape:connector-curvature="0" />
    <use
       x="0"
       y="0"
       xlink:href="#path4563"
       id="use4565"
       transform="translate(0,-101.05263)"
       width="1000"
       height="500" />
    <text
       sodipodi:linespacing="125%"
       id="use4626"
       y="608.67792"
       x="156.52634"
       style="font-size:20.21052551px;font-style:normal;font-weight:normal;line-height:125%;letter-spacing:0px;word-spacing:0px;fill:#000000;fill-opacity:1;stroke:none;font-family:Sans"
       xml:space="preserve"><tspan
         y="608.67792"
         x="156.52634"
         id="tspan4634"
         sodipodi:role="line">WF</tspan></text>
    <g
       id="g4654"
       style="stroke:#000064;stroke-width:1.58333337;stroke-opacity:1"
       transform="matrix(0.63157895,0,0,0.63157895,-21.578947,215.60712)">
      <path
         transform="translate(0,552.36218)"
         inkscape:connector-curvature="0"
         id="path4636"
         d="m 430,190 0,30"
         style="fill:none;stroke:#000064;stroke-width:3.16666675;stroke-linecap:butt;stroke-linejoin:miter;stroke-miterlimit:4;stroke-opacity:1;stroke-dasharray:none" />
      <path
         inkscape:connector-curvature="0"
         id="path4638"
         d="m 420,762.36218 20,0"
         style="fill:none;stroke:#000064;stroke-width:3.16666675;stroke-linecap:butt;stroke-linejoin:miter;stroke-miterlimit:4;stroke-opacity:1;stroke-dasharray:none" />
      <path
         inkscape:connector-curvature="0"
         id="path4640"
         d="m 435,767.36218 -10,0"
         style="fill:none;stroke:#000064;stroke-width:3.16666675;stroke-linecap:butt;stroke-linejoin:miter;stroke-miterlimit:4;stroke-opacity:1;stroke-dasharray:none" />
    </g>
    <path
       style="fill:none;stroke:#000064;stroke-width:2;stroke-linecap:butt;stroke-linejoin:miter;stroke-miterlimit:4;stroke-opacity:1;stroke-dasharray:none"
       d="m 262.63158,583.41481 0,-12.63158 12.63158,0 0,0"
       id="path4667"
       inkscape:connector-curvature="0" />
    <text
       xml:space="preserve"
       style="font-size:25.2631588px;font-style:normal;font-weight:normal;line-height:125%;letter-spacing:0px;word-spacing:0px;fill:#000000;fill-opacity:1;stroke:none;font-family:Sans"
       x="276.52631"
       y="574.57263"
       id="text4669"
       sodipodi:linespacing="125%"><tspan
         sodipodi:role="line"
         id="tspan4671"
         x="276.52631"
         y="574.57263"
         style="font-size:12.63169479px">V<tspan
   style="font-size:8.2107172px;baseline-shift:sub"
   id="tspan4675">0</tspan></tspan></text>
  </g>
</svg>
